<?xml version="1.0" ?><svg fill="none" height="32" viewBox="0 0 32 32" width="32" xmlns="http://www.w3.org/2000/svg"><path clip-rule="evenodd" d="M19 5C19 3.89543 18.1046 3 17 3H13C11.8954 3 11 3.89543 11 5V20.3319C11 20.7652 10.8476 21.1804 10.6357 21.5584C10.2308 22.2805 10 23.1133 10 24C10 26.7614 12.2386 29 15 29C17.7614 29 20 26.7614 20 24C20 23.1133 19.7692 22.2805 19.3643 21.5584C19.1524 21.1804 19 20.7652 19 20.3319V5Z" fill="#EB666B" fill-rule="evenodd"/><path d="M10.6357 21.5584L9.76341 21.0693L10.6357 21.5584ZM19.3643 21.5584L18.4921 22.0474L19.3643 21.5584ZM13 4H17V2H13V4ZM12 20.3319V5H10V20.3319H12ZM11 24C11 23.2889 11.1847 22.624 11.5079 22.0474L9.76341 21.0693C9.27698 21.9369 9 22.9376 9 24H11ZM15 28C12.7909 28 11 26.2091 11 24H9C9 27.3137 11.6863 30 15 30V28ZM19 24C19 26.2091 17.2091 28 15 28V30C18.3137 30 21 27.3137 21 24H19ZM18.4921 22.0474C18.8153 22.624 19 23.2889 19 24H21C21 22.9376 20.723 21.9369 20.2366 21.0693L18.4921 22.0474ZM18 5V20.3319H20V5H18ZM10 20.3319C10 20.5323 9.92805 20.7757 9.76341 21.0693L11.5079 22.0474C11.7671 21.5851 12 20.9982 12 20.3319H10ZM20.2366 21.0693C20.072 20.7757 20 20.5323 20 20.3319H18C18 20.9982 18.2329 21.5851 18.4921 22.0474L20.2366 21.0693ZM17 4C17.5523 4 18 4.44772 18 5H20C20 3.34315 18.6569 2 17 2V4ZM13 2C11.3431 2 10 3.34314 10 5H12C12 4.44772 12.4477 4 13 4V2Z" fill="#EB666B"/><path d="M23 23H27" stroke="#F8C09D" stroke-linecap="round" stroke-width="2"/><path d="M23 20H28" stroke="#F8C09D" stroke-linecap="round" stroke-width="2"/><path d="M23 17H29" stroke="#F8C09D" stroke-linecap="round" stroke-width="2"/><path clip-rule="evenodd" d="M16 11C16 10.4477 15.5523 10 15 10C14.4477 10 14 10.4477 14 11V22.2676C13.4022 22.6134 13 23.2597 13 24C13 25.1046 13.8954 26 15 26C16.1046 26 17 25.1046 17 24C17 23.2597 16.5978 22.6134 16 22.2676V11Z" fill="#F8C09D" fill-rule="evenodd"/></svg>